<svg id="Слой_1" data-name="Слой 1" xmlns="http://www.w3.org/2000/svg" width="360" height="180" viewBox="0 0 360 180">
  <defs>
    <style>
      .cls-1 {
        fill: #aa8372;
      }
    </style>
  </defs>
  <title>NBGoods_button_logo_2x</title>
  <path d="M171.05,29.28h-7.44V156.94h7.44Z"/>
  <g>
    <circle cx="82.16" cy="93.11" r="63.83"/>
    <circle class="cls-1" cx="82.16" cy="93.11" r="56.65"/>
    <g>
      <path d="M58.65,86.17,55.83,96.72a10.33,10.33,0,1,0,15.83,11.17,10,10,0,0,0,.31-1.84L61.77,88.38A17.24,17.24,0,0,1,58.65,86.17Z"/>
      <path d="M97.49,103.93,80.43,74.38a10.31,10.31,0,1,0-13.43,8l16.92,29.31a10.3,10.3,0,1,0,13.57-7.73Z"/>
      <path d="M105.3,71.27a10.32,10.32,0,0,0-12.64,7.32,10.64,10.64,0,0,0-.32,1.83l10.21,17.67a17.59,17.59,0,0,1,3.12,2.21l2.82-10.55a10.32,10.32,0,0,0-3.19-18.48Z"/>
    </g>
  </g>
  <g>
    <path d="M204.59,74v-24h.66l20.91,24h10.1V31.69H224.19V55.48h-.66L202.68,31.69H192.52V74Zm65.65-43.42c-15,0-24.69,8.53-24.69,22.27s9.57,22.3,24.69,22.3,24.63-8.53,24.63-22.3S285.3,30.54,270.24,30.54Zm0,8.91c7,0,11.69,5.22,11.69,13.36S277.28,66.2,270.24,66.2,258.52,61,258.52,52.81,263.2,39.45,270.24,39.45ZM326.92,74V40.33h14.46V31.69H299.79v8.64h14.43V74Z"/>
    <path d="M216.49,123.67c10.72,0,17.48-4.77,17.48-12.19,0-5.39-5.06-9.69-11.62-10v-.55c5.31-.62,9.33-4.46,9.33-9,0-6.56-5.89-10.54-15.88-10.54H192.45v42.27ZM205.18,89h7.22c4.33,0,6.86,1.82,6.86,4.84s-2.7,4.8-7.35,4.8h-6.73Zm0,27.1V105.16h7.63c5.27,0,8.22,1.93,8.22,5.39s-2.88,5.53-8.15,5.53Zm69.68,7.59h13.88L271.91,81.4H256.34l-16.79,42.27h12.63l3.22-9.29h16.34ZM263.31,90.92H264l5.38,15.73H257.83ZM297,81.37v42.3h21c15.05,0,23.41-7.67,23.41-21.56,0-13.21-8.5-20.74-23.41-20.74ZM309.72,90h6c8,0,12.73,4.42,12.73,12.3,0,8.38-4.48,12.72-12.73,12.72h-6Z"/>
    <path class="cls-1" d="M227.14,141.06a1.74,1.74,0,0,1,1.55.62,2,2,0,0,1,.68,1.16c0,.4-.09.61-.37.63a19.05,19.05,0,0,0-6,1.65q-3.5,1.5-7.56,3.75a38.47,38.47,0,0,1-2.25,5c-.93,1.79-2,3.6-3.21,5.45a62.88,62.88,0,0,1-3.92,5.37,50.53,50.53,0,0,1-4.27,4.68,24.27,24.27,0,0,1-4.32,3.35,9.15,9.15,0,0,1-4.08,1.41,7.84,7.84,0,0,1-2.8-.29,7.52,7.52,0,0,1-2.3-1,5.14,5.14,0,0,1-1.57-1.58,4.27,4.27,0,0,1-.68-1.94q-.15-1.62,1.83-4.09a42.26,42.26,0,0,1,5.28-5.35q3.38-2.81,7.59-5.73t8.62-5.5a23.53,23.53,0,0,0,1-2.47,4.5,4.5,0,0,0,.34-1.77c0-.08-.06-.12-.16-.11a4.3,4.3,0,0,0-1.54,1.06c-.74.65-1.65,1.38-2.72,2.17s-2.09,1.54-3.21,2.26a6.84,6.84,0,0,1-3,1.09,6.3,6.3,0,0,1-3.64-.78,3.66,3.66,0,0,1-1.7-3,7.93,7.93,0,0,1,.62-3.35,25,25,0,0,1,2.19-4.06,41.33,41.33,0,0,1,3.32-4.25,34.57,34.57,0,0,1,3.85-3.74,26,26,0,0,1,3.88-2.78,8.67,8.67,0,0,1,3.6-1.2,8.24,8.24,0,0,1,2.51.19,6.28,6.28,0,0,1,2,.84,4.56,4.56,0,0,1,1.33,1.29,2.7,2.7,0,0,1,.63,1.41,1.59,1.59,0,0,1-.51,1.41,1.89,1.89,0,0,1-1.1.5.7.7,0,0,1-.6-.33,4.31,4.31,0,0,0-.49-.75,3.48,3.48,0,0,0-.79-.79,1.9,1.9,0,0,0-1.24-.28,4.25,4.25,0,0,0-2.18,1,24.08,24.08,0,0,0-2.69,2.52c-.91,1-1.83,2.07-2.76,3.26s-1.78,2.34-2.53,3.47a27.46,27.46,0,0,0-1.72,3,4.11,4.11,0,0,0-.61,1.85.33.33,0,0,0,.38.34,4.7,4.7,0,0,0,1.91-.91c.9-.62,1.83-1.27,2.82-1.93s1.92-1.35,2.81-1.93a5.19,5.19,0,0,1,2.26-1,4.59,4.59,0,0,1,3.22.94,3.92,3.92,0,0,1,1.55,2.9,57.22,57.22,0,0,1,6-2.56A17.47,17.47,0,0,1,227.14,141.06Zm-36.62,29.49a1,1,0,0,0,.66.2,5.27,5.27,0,0,0,2.71-1.5,34.77,34.77,0,0,0,3.6-3.55q1.94-2.17,4-4.9t3.92-5.43q-3.13,2.25-6,4.49c-1.85,1.52-3.48,2.94-4.88,4.23a28.76,28.76,0,0,0-3.17,3.46,4,4,0,0,0-1.13,2.42A.66.66,0,0,0,190.52,170.55Zm65.81-31.35a.65.65,0,0,1,.41-.21,1.3,1.3,0,0,1,1,.48,1.42,1.42,0,0,1,.59,1c0,.48-.38,1-1.28,1.59a22.17,22.17,0,0,1-3.41,1.67c-1.37.53-2.92,1-4.63,1.51s-3.39.86-5,1.17a38.4,38.4,0,0,1-2.51,3.6,24.51,24.51,0,0,1-3.13,3.15,17.12,17.12,0,0,1-3.56,2.4,10.23,10.23,0,0,1-3.82,1,13.46,13.46,0,0,1-3.58-.19,8.53,8.53,0,0,1-2.45-1,4.55,4.55,0,0,1-1.91-5.23,17.2,17.2,0,0,1,.74-2.1c.31-.74.65-1.47,1-2.17A14.1,14.1,0,0,1,226,144a4.15,4.15,0,0,1-.53-1.84,4.75,4.75,0,0,1,1.13-3.2,14.78,14.78,0,0,1,3.2-3.22,21.19,21.19,0,0,1,4.18-2.56,12.34,12.34,0,0,1,4.24-1.18,9.09,9.09,0,0,1,6.31,2.05,7.42,7.42,0,0,1,1.84,2.17,5.45,5.45,0,0,1,.86,2.35,4.79,4.79,0,0,1-.33,1.82,20.26,20.26,0,0,1-1,2.66,40.09,40.09,0,0,0,6.2-1.56A10.82,10.82,0,0,0,256.33,139.2Zm-15.59-4.45a12.21,12.21,0,0,0-4,1,20.17,20.17,0,0,0-3.59,2,12.93,12.93,0,0,0-2.51,2.21c-.64.73-.95,1.29-.91,1.69a1.4,1.4,0,0,0,.81,1.08,7.33,7.33,0,0,0,2,.72c.87.14,1.86.26,3,.34s2.35.05,3.63,0a28.51,28.51,0,0,0,2.22-4.48,7.81,7.81,0,0,0,.76-3.36A1.12,1.12,0,0,0,240.74,134.75Zm-10.93,19c.81,0,1.84-.7,3.1-1.94a34.5,34.5,0,0,0,3.85-4.59c-1.23,0-2.39,0-3.49,0a16.13,16.13,0,0,1-3-.53,18.49,18.49,0,0,0-1.14,3.09,8.41,8.41,0,0,0-.31,2.78C228.92,153.4,229.25,153.8,229.81,153.76Zm55.6-16.47a.65.65,0,0,1,.41-.21,1.31,1.31,0,0,1,1,.47,1.5,1.5,0,0,1,.59,1c0,.48-.39,1-1.28,1.59a22.17,22.17,0,0,1-3.41,1.67q-2.07.8-4.63,1.5c-1.72.48-3.39.87-5,1.18a35.47,35.47,0,0,1-2.52,3.59,23.88,23.88,0,0,1-3.12,3.16,17.94,17.94,0,0,1-3.56,2.4,10,10,0,0,1-3.82,1,13.47,13.47,0,0,1-3.58-.18,8.15,8.15,0,0,1-2.45-1,5.08,5.08,0,0,1-1.51-1.64,5.17,5.17,0,0,1-.61-2,4.56,4.56,0,0,1,.21-1.58,16.06,16.06,0,0,1,.74-2.09c.31-.74.64-1.47,1-2.17a15,15,0,0,1,1.18-1.89,4.06,4.06,0,0,1-.53-1.83,4.74,4.74,0,0,1,1.13-3.2,14.78,14.78,0,0,1,3.2-3.22,20.9,20.9,0,0,1,4.18-2.56,12.13,12.13,0,0,1,4.23-1.18,8.24,8.24,0,0,1,3.54.48,8.46,8.46,0,0,1,2.78,1.57,7.67,7.67,0,0,1,1.84,2.16,5.5,5.5,0,0,1,.86,2.35,4.83,4.83,0,0,1-.33,1.83,21.15,21.15,0,0,1-1,2.65,39.28,39.28,0,0,0,6.2-1.55A11,11,0,0,0,285.41,137.29Zm-15.59-4.45a12.15,12.15,0,0,0-4,1,18.68,18.68,0,0,0-3.59,2,12.33,12.33,0,0,0-2.51,2.21c-.64.72-.95,1.28-.91,1.68a1.4,1.4,0,0,0,.81,1.09,7.33,7.33,0,0,0,2,.72c.87.14,1.85.25,2.95.34s2.36.05,3.64,0a28.09,28.09,0,0,0,2.22-4.48,7.9,7.9,0,0,0,.76-3.36A1.12,1.12,0,0,0,269.82,132.84Zm-10.93,19c.8,0,1.84-.7,3.1-1.95a35,35,0,0,0,3.85-4.58c-1.23,0-2.39,0-3.49,0a17,17,0,0,1-3-.53,18.7,18.7,0,0,0-1.14,3.08,8.44,8.44,0,0,0-.31,2.79Q258,151.91,258.89,151.85Zm60.53-45.69a2.3,2.3,0,0,1,1.51-.64,3.65,3.65,0,0,1,1.44.21,6.62,6.62,0,0,1,1.34.63,4.17,4.17,0,0,1,1.08.84,1.52,1.52,0,0,1,.42.75c0,.12,0,.2,0,.24a32.39,32.39,0,0,0-3.38,4.26c-1.39,2-2.89,4.24-4.51,6.8s-3.15,5.16-4.75,8-3,5.44-4.33,7.93-2.33,4.63-3.1,6.52a10.45,10.45,0,0,0-1.07,3.86q0,.54.48.51a4.75,4.75,0,0,0,1.84-.84c.85-.58,1.78-1.28,2.8-2.11l3.32-2.62c1.15-1,2.18-1.85,3.1-2.68l2.38-2a8.63,8.63,0,0,1,1-.85,1.29,1.29,0,0,1,1,.48,1.64,1.64,0,0,1,.6,1,.81.81,0,0,1-.23.68c-.26.22-.76.69-1.5,1.42s-1.64,1.57-2.69,2.53-2.2,1.89-3.44,2.93-2.48,2-3.72,2.83a34.84,34.84,0,0,1-3.51,2.16,7.11,7.11,0,0,1-2.76,1,5.42,5.42,0,0,1-3.74-1.14,4.45,4.45,0,0,1-1.79-3.19,4.79,4.79,0,0,1,.4-1.77c.36-.83.81-1.84,1.36-3-1.2,1.36-2.5,2.77-3.88,4.23s-2.67,2.72-4,3.93a38.29,38.29,0,0,1-3.71,3,6.82,6.82,0,0,1-3,1.22,3.87,3.87,0,0,1-3.23-1.11,5.31,5.31,0,0,1-1.45-3.28,8.28,8.28,0,0,1,.73-3.72,24.21,24.21,0,0,1,2.28-4.6,42.46,42.46,0,0,1,3.47-4.86,45.25,45.25,0,0,1,4.23-4.37,25.66,25.66,0,0,1,4.48-3.19,10.42,10.42,0,0,1,4.36-1.43,7.45,7.45,0,0,1,3.69.6,5,5,0,0,1,2.31,1.84q2.15-3.82,4.42-7.64c1.53-2.54,2.95-4.89,4.27-7s2.54-3.94,3.49-5.4S319.07,106.55,319.42,106.16Zm-34,42.87a4.79,4.79,0,0,0,1.75-1.08c.89-.74,1.92-1.67,3.1-2.79s2.51-2.36,3.86-3.69L298,137.6c1.26-1.24,2.37-2.36,3.32-3.34s1.72-1.76,2.15-2.19a.66.66,0,0,1-.09-.3,2,2,0,0,0-.27-.58,2.72,2.72,0,0,0-.58-.81,2.93,2.93,0,0,0-.77-.67,1.49,1.49,0,0,0-.88-.24,5,5,0,0,0-2.57,1.43,30.33,30.33,0,0,0-3.4,3.36q-1.74,2-3.51,4.44t-3.15,4.48c-.91,1.42-1.65,2.68-2.22,3.76a5.16,5.16,0,0,0-.81,2C285.25,149,285.3,149,285.39,149Zm61.68-15.86a2.67,2.67,0,0,1,1.82.43,1.32,1.32,0,0,1,.73.91c0,.4-.21.62-.73.65a16.43,16.43,0,0,0-3.49.71,44.67,44.67,0,0,0-4.43,1.5c-1.55.62-3.2,1.35-4.92,2.19s-3.35,1.62-5,2.49a10.7,10.7,0,0,1,1.67,1.82,3.85,3.85,0,0,1,.74,1.81,4.4,4.4,0,0,1-1.26,3.34,16.06,16.06,0,0,1-3.46,2.75,21.32,21.32,0,0,1-4.23,2,13.57,13.57,0,0,1-3.62.9,5.62,5.62,0,0,1-2.1-.28,8.51,8.51,0,0,1-1.94-.95,5.92,5.92,0,0,1-1.55-1.35,3,3,0,0,1-.64-1.52,3,3,0,0,1,.61-1.91,11.29,11.29,0,0,1,2-2.11,31.05,31.05,0,0,1,3.07-2.25q1.81-1.14,3.85-2.24l-1.93-1.62c-.62-.6-1.2-1.19-1.73-1.75a21.82,21.82,0,0,1-1.37-1.72,4.06,4.06,0,0,1-.58-1.64,4,4,0,0,1,.59-2.15,16.34,16.34,0,0,1,1.89-2.65,32.41,32.41,0,0,1,2.74-2.77,34.26,34.26,0,0,1,3.19-2.44,19.8,19.8,0,0,1,3.19-1.83,7.49,7.49,0,0,1,2.77-.84,7.13,7.13,0,0,1,2.51.25,8.8,8.8,0,0,1,2.08.89A4.27,4.27,0,0,1,339,125a2.44,2.44,0,0,1,.62,1.28,7,7,0,0,1-.38,2.8A12.85,12.85,0,0,1,338,132a9.67,9.67,0,0,1-1.92,2.35,3.56,3.56,0,0,1-2.19,1.05,4.14,4.14,0,0,1-1.43-.15,7.45,7.45,0,0,1-1.2-.58,4.6,4.6,0,0,1-.78-.74,1.45,1.45,0,0,1-.35-.75c0-.36.18-.56.66-.59a2.83,2.83,0,0,0,1.69-1,13.83,13.83,0,0,0,1.65-2.16,15.6,15.6,0,0,0,1.28-2.37,3.91,3.91,0,0,0,.49-1.66c0-.16-.09-.23-.24-.22a6.93,6.93,0,0,0-3.35,1.48,32.14,32.14,0,0,0-3.63,3.19,26,26,0,0,0-2.94,3.56A4.62,4.62,0,0,0,324.6,136a3,3,0,0,0,1.23,1.72c.77.67,1.67,1.4,2.69,2.17q2.88-1.34,5.82-2.55t5.44-2.1q2.55-.9,4.5-1.44A15.49,15.49,0,0,1,347.07,133.17Zm-19.46,12.24a3,3,0,0,0-.74-1,59.72,59.72,0,0,0-5.91,3.88c-1.56,1.15-2.31,2-2.27,2.5,0,.08.11.11.3.1a8.38,8.38,0,0,0,2-.61c1-.43,1.93-.91,2.93-1.46a21.93,21.93,0,0,0,2.61-1.8C327.29,146.37,327.65,145.85,327.61,145.41Z"/>
  </g>
</svg>
