<svg width="113" height="16" viewBox="0 0 113 16" fill="none" xmlns="http://www.w3.org/2000/svg">
<path d="M14.5342 2.5C13.9542 2.5 13.2342 2.56 12.5142 2.56C11.7742 2.56 11.1542 2.5 10.5742 2.5C10.5142 2.5 10.5142 2.74 10.5742 2.74C11.6142 2.74 12.2342 3.64 12.2342 5.06V11.52L5.31422 3.54C4.67422 2.78 4.65422 2.5 4.31422 2.5C3.89422 2.5 3.07422 2.54 2.11422 2.54C1.63422 2.54 1.03422 2.5 0.514219 2.5C0.454219 2.5 0.454219 2.74 0.514219 2.74C1.15422 2.74 1.71422 3.02 2.61422 4L2.61422 12.46C2.61422 13.88 1.87422 14.76 0.714219 14.76C0.634219 14.76 0.634219 15 0.714219 15C1.35422 15 2.13422 14.96 2.93422 14.96C3.67422 14.96 4.29422 15 4.87422 15C4.93422 15 4.93422 14.76 4.87422 14.76C3.83422 14.76 3.21422 13.88 3.21422 12.46L3.21422 4.68L12.5942 15.36C12.6342 15.4 12.8142 15.38 12.8142 15.3L12.8142 5.06C12.8142 3.64 13.4742 2.74 14.5342 2.74C14.5942 2.74 14.5942 2.5 14.5342 2.5ZM19.5213 15.26C21.8613 15.26 23.9213 13.62 23.9213 11.16C23.9213 9.06 22.4213 7.02 19.8613 7.02C17.8213 7.02 15.4213 8.28 15.4213 11.04C15.4213 13.3 16.9813 15.26 19.5213 15.26ZM20.1213 14.84C18.7013 14.84 17.5813 13.04 17.5813 10.3C17.5813 8.36 18.1413 7.44 19.1813 7.44C20.4613 7.44 21.7213 8.94 21.7213 11.86C21.7213 13.76 21.1813 14.84 20.1213 14.84ZM31.0064 13.62C30.6264 13.92 30.0664 14.22 29.4464 14.22C28.6464 14.22 28.0264 13.8 28.0264 12.74L28.0264 8C28.8864 8.02 29.6864 8.12 30.5464 8.3C30.6464 8.34 30.7664 8 30.7664 7.74C30.7664 7.5 30.6864 7.26 30.6264 7.26C29.6864 7.36 28.8664 7.42 28.0264 7.44V5.84C28.0264 5.74 27.7664 5.74 27.7264 5.84C27.2864 6.92 26.4664 7.44 25.1064 7.5C25.0064 7.5 25.0064 7.86 25.1064 7.86C25.8664 7.86 26.1264 8.12 26.1264 8.96V13.4C26.1264 14.86 27.2664 15.24 28.2464 15.24C29.3064 15.24 30.1864 14.78 31.1664 13.8C31.2664 13.72 31.0864 13.54 31.0064 13.62ZM38.4852 7.98C40.1052 7.38 40.9252 6.26 40.9252 5.02C40.9252 3.32 39.5052 2.44 37.1052 2.44C36.2452 2.44 35.4052 2.56 34.6452 2.56C33.6852 2.56 32.8252 2.5 32.1252 2.5C32.0652 2.5 32.0652 2.74 32.1252 2.74C33.2452 2.74 33.5452 2.98 33.5452 4.12V13.38C33.5452 14.54 33.2252 14.76 32.1052 14.76C32.0252 14.76 32.0252 15 32.1052 15C32.8052 15 33.6852 14.96 34.6452 14.96C35.5452 14.96 36.8052 15.08 37.5252 15.08C40.1652 15.08 42.1452 13.48 42.1452 11.38C42.1452 9.58 40.7252 8.26 38.4852 7.98ZM36.8052 2.88C38.0452 2.88 38.7452 3.68 38.7452 5.2C38.7452 6.74 38.0252 7.98 36.5852 7.98C36.5452 7.98 36.2452 7.98 35.7852 7.96V4.16C35.7852 3.18 36.0252 2.88 36.8052 2.88ZM37.1852 14.58C35.9452 14.58 35.7852 14.18 35.7852 13.38V8.56C36.2452 8.52 36.6252 8.52 36.8252 8.52C38.9052 8.52 39.8052 9.9 39.8052 11.86C39.8052 13.6 39.0252 14.58 37.1852 14.58ZM51.5397 13.92C51.3197 14.02 51.1397 14.06 50.9597 14.06C50.4597 14.06 50.1597 13.62 50.1597 12.84V9.3C50.1597 7.74 49.2797 7.08 48.1797 7.08C46.7197 7.08 44.0397 8.16 44.0397 9.46C44.0397 9.88 44.2997 10.22 44.9997 10.22C45.6597 10.22 46.0797 9.92 46.1597 9.1C46.1997 8.6 46.3597 7.46 47.3597 7.46C48.0397 7.46 48.2797 8.22 48.2797 9.9V11.04L46.4797 11.7C45.2197 12.16 43.9797 12.38 43.9797 13.7C43.9797 14.58 44.5397 15.14 45.7197 15.14C46.3997 15.14 46.8797 14.96 47.4797 14.5L48.3397 13.9C48.4997 14.72 48.9597 15.16 49.3597 15.16C49.4397 15.16 49.5197 15.14 49.5597 15.12L51.6197 14.14C51.7397 14.08 51.6397 13.88 51.5397 13.92ZM47.8597 13.86C47.5797 14.04 47.3997 14.08 47.1997 14.08C46.7397 14.08 46.1797 13.76 46.1797 13.06C46.1797 12.16 47.0797 11.92 47.4197 11.78L48.2797 11.38V13.3C48.2797 13.4 48.2797 13.48 48.2997 13.56L47.8597 13.86ZM61.6377 13.7C61.2777 13.84 60.9977 13.92 60.8177 13.92C60.4177 13.92 60.2577 13.6 60.2577 12.68V0.76C60.2577 0.66 60.0577 0.5 59.9177 0.5C59.8977 0.5 59.8777 0.5 59.8377 0.519999L56.8977 1.9C56.8377 1.92 56.9577 2.18 57.0577 2.14C57.3577 2 57.6177 1.92 57.7977 1.92C58.2377 1.92 58.3777 2.32 58.3777 3.22V7.26C57.8977 7.12 57.3777 7.02 56.8177 7.02C54.8977 7.02 52.2377 8.12 52.2377 11.36C52.2377 13.84 53.6577 15.26 55.3777 15.26C56.6377 15.26 57.6177 14.6 58.3977 13.86C58.4577 14.76 58.6777 15.28 58.9177 15.28C58.9377 15.28 58.9577 15.28 59.0177 15.26L61.7777 13.92C61.8377 13.88 61.7177 13.64 61.6377 13.7ZM56.4777 14.3C55.2177 14.3 54.2977 13.02 54.2977 10.72C54.2977 8.38 55.1577 7.54 56.5177 7.54C57.3177 7.54 57.8977 7.84 58.3777 8.5V13.36V13.46C57.8377 13.96 57.2377 14.3 56.4777 14.3ZM70.213 15.24C71.693 15.24 73.373 15 74.853 14.68C75.033 14.62 75.073 14.6 75.073 14.44C75.073 14.12 74.933 14.02 74.933 12.68C74.933 10.56 74.993 10.32 75.673 10.34C75.813 10.34 75.773 10.06 75.673 10.06C74.013 10.14 72.653 10.14 70.793 10.02C70.653 10.02 70.653 10.34 70.813 10.34C72.673 10.34 72.813 10.56 72.813 12.48C72.813 14.54 72.233 14.9 70.713 14.9C67.533 14.9 65.193 12.24 65.193 8.42C65.193 4.88 67.253 2.7 69.813 2.7C72.513 2.7 73.953 5.06 74.353 6.08C74.393 6.18 74.593 6.14 74.593 6.06L74.333 3.28C74.313 2.92 74.313 2.92 74.033 2.82C73.233 2.48 71.813 2.28 70.573 2.28C66.093 2.28 62.773 4.96 62.773 8.84C62.773 12.38 65.533 15.24 70.213 15.24ZM81.1619 15.26C83.5019 15.26 85.5619 13.62 85.5619 11.16C85.5619 9.06 84.0619 7.02 81.5019 7.02C79.4619 7.02 77.0619 8.28 77.0619 11.04C77.0619 13.3 78.6219 15.26 81.1619 15.26ZM81.7619 14.84C80.3419 14.84 79.2219 13.04 79.2219 10.3C79.2219 8.36 79.7819 7.44 80.8219 7.44C82.1019 7.44 83.3619 8.94 83.3619 11.86C83.3619 13.76 82.8219 14.84 81.7619 14.84ZM90.947 15.26C93.287 15.26 95.347 13.62 95.347 11.16C95.347 9.06 93.847 7.02 91.287 7.02C89.247 7.02 86.847 8.28 86.847 11.04C86.847 13.3 88.407 15.26 90.947 15.26ZM91.547 14.84C90.127 14.84 89.007 13.04 89.007 10.3C89.007 8.36 89.567 7.44 90.607 7.44C91.887 7.44 93.147 8.94 93.147 11.86C93.147 13.76 92.607 14.84 91.547 14.84ZM106.032 13.7C105.672 13.84 105.392 13.92 105.212 13.92C104.812 13.92 104.652 13.6 104.652 12.68V0.76C104.652 0.66 104.452 0.5 104.312 0.5C104.292 0.5 104.272 0.5 104.232 0.519999L101.292 1.9C101.232 1.92 101.352 2.18 101.452 2.14C101.752 2 102.012 1.92 102.192 1.92C102.632 1.92 102.772 2.32 102.772 3.22V7.26C102.292 7.12 101.772 7.02 101.212 7.02C99.2922 7.02 96.6322 8.12 96.6322 11.36C96.6322 13.84 98.0522 15.26 99.7722 15.26C101.032 15.26 102.012 14.6 102.792 13.86C102.852 14.76 103.072 15.28 103.312 15.28C103.332 15.28 103.352 15.28 103.412 15.26L106.172 13.92C106.232 13.88 106.112 13.64 106.032 13.7ZM100.872 14.3C99.6122 14.3 98.6922 13.02 98.6922 10.72C98.6922 8.38 99.5522 7.54 100.912 7.54C101.712 7.54 102.292 7.84 102.772 8.5V13.36V13.46C102.232 13.96 101.632 14.3 100.872 14.3ZM108.548 8.24C108.548 7.58 108.988 7.46 109.368 7.46C110.508 7.46 111.568 8.64 111.568 9.38C111.568 9.46 111.808 9.46 111.808 9.38C111.808 8.68 111.848 8.14 111.848 7.6C111.848 7.52 111.788 7.42 111.668 7.38C111.028 7.14 110.588 7.08 110.008 7.08C108.548 7.08 107.108 7.68 107.108 9.36C107.108 10.76 108.148 11.24 109.088 11.74C109.888 12.2 110.748 12.7 110.748 13.8C110.748 14.5 110.368 14.82 109.828 14.82C108.788 14.82 107.688 13.72 107.268 12.42C107.248 12.36 107.028 12.38 107.028 12.46L107.068 14.44C107.068 14.56 107.128 14.62 107.188 14.68C107.948 15.1 108.588 15.22 109.268 15.22C111.248 15.22 112.248 13.9 112.248 12.6C112.248 11.22 111.128 10.68 110.148 10.12C109.308 9.62 108.548 9.1 108.548 8.24Z" fill="white"/>
</svg>
