<svg width="65" height="22" viewBox="0 0 65 22" fill="none" xmlns="http://www.w3.org/2000/svg">
<path d="M23.1516 1C23.1943 1 23.2156 1.064 23.2156 1.192C23.2156 1.32 23.1943 1.384 23.1516 1.384C22.2983 1.384 21.6263 1.72533 21.1356 2.408C20.645 3.06933 20.3996 3.96533 20.3996 5.096V21.48C20.3996 21.544 20.3463 21.5867 20.2396 21.608C20.1543 21.6293 20.0903 21.6187 20.0476 21.576L5.03963 4.488V16.936C5.03963 18.0667 5.27429 18.9627 5.74363 19.624C6.21296 20.2853 6.86363 20.616 7.69563 20.616C7.73829 20.616 7.75963 20.68 7.75963 20.808C7.75963 20.936 7.73829 21 7.69563 21C7.09829 21 6.63963 20.9893 6.31963 20.968L4.59163 20.936L2.60763 20.968C2.24496 20.9893 1.72229 21 1.03963 21C0.975625 21 0.943625 20.936 0.943625 20.808C0.943625 20.68 0.975625 20.616 1.03963 20.616C1.97829 20.616 2.71429 20.2853 3.24763 19.624C3.80229 18.9627 4.07963 18.0667 4.07963 16.936V3.4C3.37563 2.632 2.76763 2.10933 2.25563 1.832C1.76496 1.53333 1.25296 1.384 0.719625 1.384C0.676958 1.384 0.655625 1.32 0.655625 1.192C0.655625 1.064 0.676958 1 0.719625 1L2.06363 1.032C2.34096 1.05333 2.74629 1.064 3.27963 1.064L5.71163 1.032C6.01029 1.01067 6.37296 1 6.79963 1C6.97029 1 7.09829 1.04267 7.18363 1.128C7.26896 1.21333 7.41829 1.39467 7.63163 1.672C7.99429 2.16267 8.25029 2.49333 8.39963 2.664L19.4716 15.432V5.096C19.4716 3.944 19.237 3.03733 18.7676 2.376C18.2983 1.71467 17.6476 1.384 16.8156 1.384C16.773 1.384 16.7516 1.32 16.7516 1.192C16.7516 1.064 16.773 1 16.8156 1L18.1916 1.032C18.8743 1.07467 19.4503 1.096 19.9196 1.096C20.3463 1.096 20.9436 1.07467 21.7116 1.032L23.1516 1ZM35.0669 9.768C36.8589 9.98133 38.2775 10.5787 39.3229 11.56C40.3895 12.5413 40.9229 13.7573 40.9229 15.208C40.9229 16.3173 40.6029 17.32 39.9629 18.216C39.3229 19.112 38.4375 19.8267 37.3069 20.36C36.1762 20.872 34.9175 21.128 33.5309 21.128C32.9335 21.128 32.2509 21.096 31.4829 21.032C31.1842 21.0107 30.8109 20.9893 30.3629 20.968C29.9362 20.9467 29.4562 20.936 28.9229 20.936L26.5869 20.968C26.1602 20.9893 25.5842 21 24.8589 21C24.7949 21 24.7629 20.936 24.7629 20.808C24.7629 20.68 24.7949 20.616 24.8589 20.616C25.4775 20.616 25.9469 20.5627 26.2669 20.456C26.5869 20.328 26.8109 20.1147 26.9389 19.816C27.0882 19.496 27.1629 19.0267 27.1629 18.408V3.592C27.1629 2.696 27.0135 2.10933 26.7149 1.832C26.4162 1.53333 25.8082 1.384 24.8909 1.384C24.8482 1.384 24.8269 1.32 24.8269 1.192C24.8269 1.064 24.8482 1 24.8909 1L26.5869 1.032C27.5682 1.07467 28.3469 1.096 28.9229 1.096C29.5202 1.096 30.1389 1.064 30.7789 1C30.9922 0.978666 31.3122 0.957332 31.7389 0.935999C32.1655 0.914666 32.5389 0.903999 32.8589 0.903999C34.8002 0.903999 36.3042 1.256 37.3709 1.96C38.4375 2.664 38.9709 3.688 38.9709 5.032C38.9709 6.056 38.6295 6.984 37.9469 7.816C37.2855 8.648 36.3255 9.29867 35.0669 9.768ZM32.3789 1.608C31.7602 1.608 31.3335 1.75733 31.0989 2.056C30.8642 2.33333 30.7469 2.86666 30.7469 3.656V9.736L32.0269 9.768C33.1362 9.768 33.9895 9.352 34.5869 8.52C35.1842 7.688 35.4829 6.62133 35.4829 5.32C35.4829 4.104 35.2162 3.18667 34.6829 2.568C34.1495 1.928 33.3815 1.608 32.3789 1.608ZM32.9869 20.328C35.7815 20.328 37.1789 18.8773 37.1789 15.976C37.1789 14.3333 36.7842 13.032 35.9949 12.072C35.2055 11.112 34.0109 10.632 32.4109 10.632C31.7922 10.632 31.2375 10.6533 30.7469 10.696V18.408C30.7469 19.112 30.8855 19.6133 31.1629 19.912C31.4402 20.1893 32.0482 20.328 32.9869 20.328ZM56.0501 21.384C53.6181 21.384 51.5061 20.936 49.7141 20.04C47.9221 19.1227 46.5461 17.8853 45.5861 16.328C44.6261 14.7707 44.1461 13.0427 44.1461 11.144C44.1461 9.11733 44.6795 7.304 45.7461 5.704C46.8341 4.104 48.3275 2.86667 50.2261 1.992C52.1248 1.096 54.2581 0.647999 56.6261 0.647999C57.6501 0.647999 58.6741 0.733332 59.6981 0.903999C60.7221 1.05333 61.5435 1.256 62.1621 1.512C62.3968 1.59733 62.5248 1.672 62.5461 1.736C62.5888 1.77867 62.6208 1.94933 62.6421 2.248L63.0581 6.696C63.0581 6.76 62.9941 6.80267 62.8661 6.824C62.7595 6.84533 62.6955 6.81333 62.6741 6.728C62.3968 6.024 61.9488 5.256 61.3301 4.424C60.7115 3.592 59.9008 2.86667 58.8981 2.248C57.8955 1.62933 56.7328 1.32 55.4101 1.32C54.0448 1.32 52.7968 1.69333 51.6661 2.44C50.5355 3.18667 49.6395 4.25333 48.9781 5.64C48.3381 7.02667 48.0181 8.63733 48.0181 10.472C48.0181 12.4773 48.3915 14.2693 49.1381 15.848C49.9061 17.4267 50.9621 18.6533 52.3061 19.528C53.6501 20.4027 55.1648 20.84 56.8501 20.84C57.7248 20.84 58.3968 20.744 58.8661 20.552C59.3355 20.36 59.6768 19.9867 59.8901 19.432C60.1035 18.8773 60.2101 18.056 60.2101 16.968C60.2101 15.8587 60.1461 15.0907 60.0181 14.664C59.8901 14.216 59.6128 13.9173 59.1861 13.768C58.7808 13.6187 58.0555 13.544 57.0101 13.544C56.8821 13.544 56.8181 13.4587 56.8181 13.288C56.8181 13.224 56.8288 13.1707 56.8501 13.128C56.8928 13.064 56.9355 13.032 56.9781 13.032C58.7915 13.1387 60.2635 13.192 61.3941 13.192C62.4821 13.192 63.6128 13.16 64.7861 13.096C64.8715 13.096 64.9141 13.1707 64.9141 13.32C64.9355 13.4693 64.8928 13.544 64.7861 13.544C64.4021 13.5227 64.1248 13.5973 63.9541 13.768C63.8048 13.9173 63.7088 14.2373 63.6661 14.728C63.6235 15.2187 63.6021 16.072 63.6021 17.288C63.6021 18.248 63.6341 18.9307 63.6981 19.336C63.7835 19.7413 63.8261 19.9973 63.8261 20.104C63.8261 20.232 63.8048 20.3173 63.7621 20.36C63.7195 20.4027 63.6235 20.4453 63.4741 20.488C60.7221 21.0853 58.2475 21.384 56.0501 21.384Z" fill="#252525"/>
</svg>
