<svg width="180" height="25" viewBox="0 0 180 25" fill="none" xmlns="http://www.w3.org/2000/svg">
<path d="M23.3548 4C23.3974 4 23.4188 4.064 23.4188 4.192C23.4188 4.32 23.3974 4.384 23.3548 4.384C22.5014 4.384 21.8294 4.72533 21.3388 5.408C20.8481 6.06933 20.6028 6.96533 20.6028 8.096V24.48C20.6028 24.544 20.5494 24.5867 20.4428 24.608C20.3574 24.6293 20.2934 24.6187 20.2508 24.576L5.24275 7.488L5.24275 19.936C5.24275 21.0667 5.47742 21.9627 5.94675 22.624C6.41608 23.2853 7.06675 23.616 7.89875 23.616C7.94142 23.616 7.96275 23.68 7.96275 23.808C7.96275 23.936 7.94142 24 7.89875 24C7.30142 24 6.84275 23.9893 6.52275 23.968L4.79475 23.936L2.81075 23.968C2.44808 23.9893 1.92542 24 1.24275 24C1.17875 24 1.14675 23.936 1.14675 23.808C1.14675 23.68 1.17875 23.616 1.24275 23.616C2.18142 23.616 2.91742 23.2853 3.45075 22.624C4.00542 21.9627 4.28275 21.0667 4.28275 19.936L4.28275 6.4C3.57875 5.632 2.97075 5.10933 2.45875 4.832C1.96808 4.53333 1.45608 4.384 0.92275 4.384C0.880083 4.384 0.85875 4.32 0.85875 4.192C0.85875 4.064 0.880083 4 0.92275 4L2.26675 4.032C2.54408 4.05333 2.94942 4.064 3.48275 4.064L5.91475 4.032C6.21342 4.01067 6.57608 4 7.00275 4C7.17342 4 7.30142 4.04267 7.38675 4.128C7.47208 4.21333 7.62142 4.39467 7.83475 4.672C8.19742 5.16267 8.45342 5.49333 8.60275 5.664L19.6748 18.432V8.096C19.6748 6.944 19.4401 6.03733 18.9708 5.376C18.5014 4.71467 17.8508 4.384 17.0188 4.384C16.9761 4.384 16.9548 4.32 16.9548 4.192C16.9548 4.064 16.9761 4 17.0188 4L18.3948 4.032C19.0774 4.07467 19.6534 4.096 20.1228 4.096C20.5494 4.096 21.1468 4.07467 21.9148 4.032L23.3548 4ZM31.334 24.416C30.0113 24.416 28.8487 24.1173 27.846 23.52C26.8647 22.9013 26.1073 22.08 25.574 21.056C25.0407 20.0107 24.774 18.88 24.774 17.664C24.774 16.2773 25.126 15.104 25.83 14.144C26.534 13.1627 27.43 12.4373 28.518 11.968C29.606 11.4773 30.726 11.232 31.878 11.232C33.2007 11.232 34.3527 11.5413 35.334 12.16C36.3153 12.7787 37.062 13.6 37.574 14.624C38.1073 15.6267 38.374 16.704 38.374 17.856C38.374 19.136 38.054 20.2773 37.414 21.28C36.774 22.2613 35.91 23.0293 34.822 23.584C33.7553 24.1387 32.5927 24.416 31.334 24.416ZM32.294 23.744C33.126 23.744 33.7553 23.3387 34.182 22.528C34.63 21.696 34.854 20.512 34.854 18.976C34.854 17.4827 34.662 16.2027 34.278 15.136C33.894 14.0693 33.3927 13.2693 32.774 12.736C32.1553 12.1813 31.494 11.904 30.79 11.904C29.0833 11.904 28.23 13.4293 28.23 16.48C28.23 17.9093 28.4113 19.1787 28.774 20.288C29.1367 21.376 29.6273 22.2293 30.246 22.848C30.8647 23.4453 31.5473 23.744 32.294 23.744ZM49.7743 21.76C49.8596 21.76 49.9236 21.8027 49.9663 21.888C50.0303 21.9733 50.0303 22.0373 49.9663 22.08C49.1769 22.8693 48.4089 23.456 47.6623 23.84C46.9156 24.2027 46.1263 24.384 45.2943 24.384C44.3556 24.384 43.5556 24.16 42.8943 23.712C42.2329 23.264 41.9023 22.5067 41.9023 21.44L41.9023 14.336C41.9023 13.6747 41.7849 13.216 41.5503 12.96C41.3156 12.704 40.8889 12.576 40.2703 12.576C40.2489 12.576 40.2169 12.544 40.1743 12.48C40.1529 12.416 40.1423 12.352 40.1423 12.288C40.1423 12.2027 40.1529 12.1387 40.1743 12.096C40.1956 12.032 40.2276 12 40.2703 12C41.3583 11.9573 42.2329 11.7227 42.8943 11.296C43.5769 10.8693 44.0996 10.2187 44.4623 9.344C44.5049 9.25867 44.5903 9.216 44.7183 9.216C44.8676 9.216 44.9423 9.25867 44.9423 9.344V11.904C46.1796 11.8827 47.5663 11.7867 49.1023 11.616C49.1449 11.616 49.1876 11.7013 49.2303 11.872C49.2943 12.0213 49.3263 12.192 49.3263 12.384C49.3263 12.5973 49.2836 12.8107 49.1983 13.024C49.1343 13.216 49.0596 13.3013 48.9743 13.28C47.5876 12.9813 46.2436 12.8213 44.9423 12.8L44.9423 20.384C44.9423 21.1947 45.1449 21.792 45.5503 22.176C45.9769 22.56 46.5316 22.752 47.2143 22.752C48.0676 22.752 48.8996 22.432 49.7103 21.792L49.7743 21.76ZM61.6763 12.768C63.4683 12.9813 64.8869 13.5787 65.9323 14.56C66.9989 15.5413 67.5323 16.7573 67.5323 18.208C67.5323 19.3173 67.2123 20.32 66.5723 21.216C65.9323 22.112 65.0469 22.8267 63.9163 23.36C62.7856 23.872 61.5269 24.128 60.1403 24.128C59.5429 24.128 58.8603 24.096 58.0923 24.032C57.7936 24.0107 57.4203 23.9893 56.9723 23.968C56.5456 23.9467 56.0656 23.936 55.5323 23.936L53.1963 23.968C52.7696 23.9893 52.1936 24 51.4683 24C51.4043 24 51.3723 23.936 51.3723 23.808C51.3723 23.68 51.4043 23.616 51.4683 23.616C52.0869 23.616 52.5563 23.5627 52.8763 23.456C53.1963 23.328 53.4203 23.1147 53.5483 22.816C53.6976 22.496 53.7723 22.0267 53.7723 21.408L53.7723 6.592C53.7723 5.696 53.6229 5.10933 53.3243 4.832C53.0256 4.53333 52.4176 4.384 51.5003 4.384C51.4576 4.384 51.4363 4.32 51.4363 4.192C51.4363 4.064 51.4576 4 51.5003 4L53.1963 4.032C54.1776 4.07467 54.9563 4.096 55.5323 4.096C56.1296 4.096 56.7483 4.064 57.3883 4C57.6016 3.97867 57.9216 3.95733 58.3483 3.936C58.7749 3.91467 59.1483 3.904 59.4683 3.904C61.4096 3.904 62.9136 4.256 63.9803 4.96C65.0469 5.664 65.5803 6.688 65.5803 8.032C65.5803 9.056 65.2389 9.984 64.5563 10.816C63.8949 11.648 62.9349 12.2987 61.6763 12.768ZM58.9883 4.608C58.3696 4.608 57.9429 4.75733 57.7083 5.056C57.4736 5.33333 57.3563 5.86666 57.3563 6.656V12.736L58.6363 12.768C59.7456 12.768 60.5989 12.352 61.1963 11.52C61.7936 10.688 62.0923 9.62133 62.0923 8.32C62.0923 7.104 61.8256 6.18667 61.2923 5.568C60.7589 4.928 59.9909 4.608 58.9883 4.608ZM59.5963 23.328C62.3909 23.328 63.7883 21.8773 63.7883 18.976C63.7883 17.3333 63.3936 16.032 62.6043 15.072C61.8149 14.112 60.6203 13.632 59.0203 13.632C58.4016 13.632 57.8469 13.6533 57.3563 13.696L57.3563 21.408C57.3563 22.112 57.4949 22.6133 57.7723 22.912C58.0496 23.1893 58.6576 23.328 59.5963 23.328ZM82.5955 22.272C82.6808 22.272 82.7342 22.3253 82.7555 22.432C82.7982 22.5173 82.7768 22.5813 82.6915 22.624L79.3955 24.192C79.3102 24.2347 79.2035 24.256 79.0755 24.256C78.7342 24.256 78.4035 24.0747 78.0835 23.712C77.7848 23.3493 77.5715 22.8587 77.4435 22.24L76.0675 23.2C75.5768 23.5627 75.1182 23.8293 74.6915 24C74.2648 24.1493 73.7848 24.224 73.2515 24.224C72.3342 24.224 71.6408 24.0213 71.1715 23.616C70.7022 23.2107 70.4675 22.6453 70.4675 21.92C70.4675 21.344 70.6062 20.8853 70.8835 20.544C71.1608 20.1813 71.5022 19.904 71.9075 19.712C72.3342 19.4987 72.9208 19.264 73.6675 19.008L74.4675 18.72L77.3475 17.664V15.84C77.3475 14.4747 77.2302 13.4827 76.9955 12.864C76.7822 12.2453 76.4088 11.936 75.8755 11.936C74.7448 11.936 74.1048 12.8107 73.9555 14.56C73.8915 15.2 73.6995 15.6587 73.3795 15.936C73.0808 16.2133 72.6542 16.352 72.0995 16.352C71.5662 16.352 71.1715 16.2453 70.9155 16.032C70.6808 15.7973 70.5635 15.4987 70.5635 15.136C70.5635 14.496 70.9368 13.888 71.6835 13.312C72.4302 12.7147 73.3262 12.2347 74.3715 11.872C75.4382 11.5093 76.3768 11.328 77.1875 11.328C78.1262 11.328 78.8835 11.6267 79.4595 12.224C80.0568 12.8 80.3555 13.6853 80.3555 14.88V20.544C80.3555 21.1627 80.4622 21.6427 80.6755 21.984C80.9102 22.3253 81.2302 22.496 81.6355 22.496C81.9342 22.496 82.2435 22.4213 82.5635 22.272H82.5955ZM77.3795 21.696C77.3582 21.6107 77.3475 21.472 77.3475 21.28V18.208L75.9715 18.848C75.9075 18.8693 75.6942 18.9547 75.3315 19.104C74.9688 19.232 74.6488 19.456 74.3715 19.776C74.1155 20.096 73.9875 20.4693 73.9875 20.896C73.9875 21.408 74.1475 21.8133 74.4675 22.112C74.8088 22.3893 75.1928 22.528 75.6195 22.528C75.9608 22.528 76.3128 22.4107 76.6755 22.176L77.3795 21.696ZM98.7523 21.92C98.8163 21.92 98.8696 21.9733 98.9123 22.08C98.9763 22.1867 98.9869 22.2507 98.9443 22.272L94.5283 24.416L94.3683 24.448C94.1763 24.448 93.9949 24.2453 93.8243 23.84C93.6749 23.4347 93.5789 22.88 93.5363 22.176C91.9576 23.6693 90.3469 24.416 88.7043 24.416C87.7656 24.416 86.9123 24.1707 86.1443 23.68C85.3976 23.1893 84.8003 22.4747 84.3523 21.536C83.9043 20.576 83.6803 19.456 83.6803 18.176C83.6803 16.5547 84.0536 15.232 84.8003 14.208C85.5683 13.1627 86.5069 12.4053 87.6163 11.936C88.7469 11.4667 89.8776 11.232 91.0083 11.232C91.7976 11.232 92.6296 11.36 93.5043 11.616V5.152C93.5043 4.40533 93.4296 3.872 93.2803 3.552C93.1523 3.232 92.9176 3.072 92.5763 3.072C92.2989 3.072 91.9043 3.18933 91.3923 3.424H91.3603C91.2749 3.424 91.2003 3.37067 91.1363 3.264C91.0936 3.136 91.0936 3.06133 91.1363 3.04L95.8403 0.831999L95.9683 0.799999C96.0749 0.799999 96.1923 0.853333 96.3203 0.959999C96.4483 1.04533 96.5123 1.13067 96.5123 1.216V20.288C96.5123 21.0133 96.5763 21.5253 96.7043 21.824C96.8536 22.1227 97.0883 22.272 97.4083 22.272C97.6856 22.272 98.1229 22.1547 98.7203 21.92H98.7523ZM90.4643 22.88C91.5309 22.88 92.5443 22.432 93.5043 21.536V21.376V13.6C93.1203 13.0667 92.6829 12.6827 92.1923 12.448C91.7229 12.192 91.1683 12.064 90.5283 12.064C89.3763 12.064 88.4909 12.4693 87.8723 13.28C87.2749 14.0693 86.9763 15.36 86.9763 17.152C86.9763 18.944 87.2963 20.352 87.9363 21.376C88.5763 22.3787 89.4189 22.88 90.4643 22.88ZM112.441 24.384C110.009 24.384 107.897 23.936 106.105 23.04C104.313 22.1227 102.937 20.8853 101.977 19.328C101.017 17.7707 100.537 16.0427 100.537 14.144C100.537 12.1173 101.07 10.304 102.137 8.704C103.225 7.104 104.718 5.86667 106.617 4.992C108.515 4.096 110.649 3.648 113.017 3.648C114.041 3.648 115.065 3.73333 116.089 3.904C117.113 4.05333 117.934 4.256 118.553 4.512C118.787 4.59733 118.915 4.672 118.937 4.736C118.979 4.77867 119.011 4.94933 119.033 5.248L119.449 9.696C119.449 9.76 119.385 9.80267 119.257 9.824C119.15 9.84533 119.086 9.81333 119.065 9.728C118.787 9.024 118.339 8.256 117.721 7.424C117.102 6.592 116.291 5.86667 115.289 5.248C114.286 4.62933 113.123 4.32 111.801 4.32C110.435 4.32 109.187 4.69333 108.057 5.44C106.926 6.18667 106.03 7.25333 105.369 8.64C104.729 10.0267 104.409 11.6373 104.409 13.472C104.409 15.4773 104.782 17.2693 105.529 18.848C106.297 20.4267 107.353 21.6533 108.697 22.528C110.041 23.4027 111.555 23.84 113.241 23.84C114.115 23.84 114.787 23.744 115.257 23.552C115.726 23.36 116.067 22.9867 116.281 22.432C116.494 21.8773 116.601 21.056 116.601 19.968C116.601 18.8587 116.537 18.0907 116.409 17.664C116.281 17.216 116.003 16.9173 115.577 16.768C115.171 16.6187 114.446 16.544 113.401 16.544C113.273 16.544 113.209 16.4587 113.209 16.288C113.209 16.224 113.219 16.1707 113.241 16.128C113.283 16.064 113.326 16.032 113.369 16.032C115.182 16.1387 116.654 16.192 117.785 16.192C118.873 16.192 120.003 16.16 121.177 16.096C121.262 16.096 121.305 16.1707 121.305 16.32C121.326 16.4693 121.283 16.544 121.177 16.544C120.793 16.5227 120.515 16.5973 120.345 16.768C120.195 16.9173 120.099 17.2373 120.057 17.728C120.014 18.2187 119.993 19.072 119.993 20.288C119.993 21.248 120.025 21.9307 120.089 22.336C120.174 22.7413 120.217 22.9973 120.217 23.104C120.217 23.232 120.195 23.3173 120.153 23.36C120.11 23.4027 120.014 23.4453 119.865 23.488C117.113 24.0853 114.638 24.384 112.441 24.384ZM129.959 24.416C128.636 24.416 127.474 24.1173 126.471 23.52C125.49 22.9013 124.732 22.08 124.199 21.056C123.666 20.0107 123.399 18.88 123.399 17.664C123.399 16.2773 123.751 15.104 124.455 14.144C125.159 13.1627 126.055 12.4373 127.143 11.968C128.231 11.4773 129.351 11.232 130.503 11.232C131.826 11.232 132.978 11.5413 133.959 12.16C134.94 12.7787 135.687 13.6 136.199 14.624C136.732 15.6267 136.999 16.704 136.999 17.856C136.999 19.136 136.679 20.2773 136.039 21.28C135.399 22.2613 134.535 23.0293 133.447 23.584C132.38 24.1387 131.218 24.416 129.959 24.416ZM130.919 23.744C131.751 23.744 132.38 23.3387 132.807 22.528C133.255 21.696 133.479 20.512 133.479 18.976C133.479 17.4827 133.287 16.2027 132.903 15.136C132.519 14.0693 132.018 13.2693 131.399 12.736C130.78 12.1813 130.119 11.904 129.415 11.904C127.708 11.904 126.855 13.4293 126.855 16.48C126.855 17.9093 127.036 19.1787 127.399 20.288C127.762 21.376 128.252 22.2293 128.871 22.848C129.49 23.4453 130.172 23.744 130.919 23.744ZM145.615 24.416C144.293 24.416 143.13 24.1173 142.127 23.52C141.146 22.9013 140.389 22.08 139.855 21.056C139.322 20.0107 139.055 18.88 139.055 17.664C139.055 16.2773 139.407 15.104 140.111 14.144C140.815 13.1627 141.711 12.4373 142.799 11.968C143.887 11.4773 145.007 11.232 146.159 11.232C147.482 11.232 148.634 11.5413 149.615 12.16C150.597 12.7787 151.343 13.6 151.855 14.624C152.389 15.6267 152.655 16.704 152.655 17.856C152.655 19.136 152.335 20.2773 151.695 21.28C151.055 22.2613 150.191 23.0293 149.103 23.584C148.037 24.1387 146.874 24.416 145.615 24.416ZM146.575 23.744C147.407 23.744 148.037 23.3387 148.463 22.528C148.911 21.696 149.135 20.512 149.135 18.976C149.135 17.4827 148.943 16.2027 148.559 15.136C148.175 14.0693 147.674 13.2693 147.055 12.736C146.437 12.1813 145.775 11.904 145.071 11.904C143.365 11.904 142.511 13.4293 142.511 16.48C142.511 17.9093 142.693 19.1787 143.055 20.288C143.418 21.376 143.909 22.2293 144.527 22.848C145.146 23.4453 145.829 23.744 146.575 23.744ZM169.784 21.92C169.848 21.92 169.901 21.9733 169.944 22.08C170.008 22.1867 170.018 22.2507 169.976 22.272L165.56 24.416L165.4 24.448C165.208 24.448 165.026 24.2453 164.856 23.84C164.706 23.4347 164.61 22.88 164.568 22.176C162.989 23.6693 161.378 24.416 159.736 24.416C158.797 24.416 157.944 24.1707 157.176 23.68C156.429 23.1893 155.832 22.4747 155.384 21.536C154.936 20.576 154.712 19.456 154.712 18.176C154.712 16.5547 155.085 15.232 155.832 14.208C156.6 13.1627 157.538 12.4053 158.648 11.936C159.778 11.4667 160.909 11.232 162.04 11.232C162.829 11.232 163.661 11.36 164.536 11.616V5.152C164.536 4.40533 164.461 3.872 164.312 3.552C164.184 3.232 163.949 3.072 163.608 3.072C163.33 3.072 162.936 3.18933 162.424 3.424H162.392C162.306 3.424 162.232 3.37067 162.168 3.264C162.125 3.136 162.125 3.06133 162.168 3.04L166.872 0.831999L167 0.799999C167.106 0.799999 167.224 0.853333 167.352 0.959999C167.48 1.04533 167.544 1.13067 167.544 1.216V20.288C167.544 21.0133 167.608 21.5253 167.736 21.824C167.885 22.1227 168.12 22.272 168.44 22.272C168.717 22.272 169.154 22.1547 169.752 21.92H169.784ZM161.496 22.88C162.562 22.88 163.576 22.432 164.536 21.536V21.376V13.6C164.152 13.0667 163.714 12.6827 163.224 12.448C162.754 12.192 162.2 12.064 161.56 12.064C160.408 12.064 159.522 12.4693 158.904 13.28C158.306 14.0693 158.008 15.36 158.008 17.152C158.008 18.944 158.328 20.352 158.968 21.376C159.608 22.3787 160.45 22.88 161.496 22.88ZM173.776 13.184C173.776 13.8027 173.989 14.336 174.416 14.784C174.864 15.232 175.504 15.7013 176.336 16.192C177.147 16.6613 177.744 17.0347 178.128 17.312C178.533 17.568 178.896 17.9413 179.216 18.432C179.536 18.9013 179.696 19.4773 179.696 20.16C179.696 20.8853 179.515 21.568 179.152 22.208C178.789 22.848 178.245 23.3707 177.52 23.776C176.795 24.16 175.931 24.352 174.928 24.352C173.755 24.352 172.645 24.064 171.6 23.488C171.472 23.36 171.408 23.232 171.408 23.104L171.344 19.936C171.344 19.872 171.397 19.84 171.504 19.84C171.632 19.8187 171.707 19.8293 171.728 19.872C172.069 20.9387 172.635 21.8453 173.424 22.592C174.213 23.3387 175.013 23.712 175.824 23.712C176.272 23.712 176.624 23.5733 176.88 23.296C177.157 23.0187 177.296 22.6133 177.296 22.08C177.296 21.2907 177.072 20.672 176.624 20.224C176.176 19.7547 175.515 19.2747 174.64 18.784C173.893 18.3787 173.328 18.048 172.944 17.792C172.56 17.536 172.219 17.1733 171.92 16.704C171.621 16.2347 171.472 15.6587 171.472 14.976C171.472 13.7173 171.92 12.8 172.816 12.224C173.712 11.6267 174.811 11.328 176.112 11.328C176.603 11.328 177.04 11.36 177.424 11.424C177.829 11.488 178.277 11.616 178.768 11.808C178.96 11.872 179.056 11.9893 179.056 12.16C179.056 12.6933 179.045 13.1093 179.024 13.408L178.992 15.008C178.992 15.072 178.928 15.104 178.8 15.104C178.672 15.104 178.608 15.072 178.608 15.008C178.608 14.6027 178.437 14.1653 178.096 13.696C177.755 13.2053 177.307 12.7893 176.752 12.448C176.219 12.1067 175.664 11.936 175.088 11.936C174.213 11.936 173.776 12.352 173.776 13.184Z" fill="#252525"/>
</svg>
